<?xml version="1.0" standalone="no"?>
<!DOCTYPE svg PUBLIC "-//W3C//DTD SVG 20010904//EN"
 "http://www.w3.org/TR/2001/REC-SVG-20010904/DTD/svg10.dtd">
<svg version="1.0" xmlns="http://www.w3.org/2000/svg"
 width="168.000000pt" height="190.000000pt" viewBox="0 0 168.000000 190.000000"
 preserveAspectRatio="xMidYMid meet">

<g transform="translate(0.000000,220.000000) scale(0.100000,-0.100000)"
fill="#ED225D" stroke="none">
<path d="M650 1280 c0 -178 -2 -200 -16 -200 -9 0 -91 24 -183 54 -91 30 -175
56 -185 58 -16 2 -25 -15 -57 -110 -34 -101 -36 -113 -21 -121 9 -4 97 -36
195 -71 128 -45 177 -67 173 -76 -3 -8 -55 -82 -116 -165 -61 -83 -110 -154
-108 -159 2 -5 44 -40 95 -79 l92 -72 121 161 c66 88 124 160 129 160 5 0 64
-74 132 -164 70 -94 127 -162 133 -158 47 28 186 136 186 143 0 6 -50 80 -111
166 -61 86 -113 161 -115 167 -2 6 77 39 186 76 104 36 190 69 190 73 0 15
-62 212 -69 218 -3 4 -93 -19 -198 -50 l-193 -58 0 204 0 203 -130 0 -130 0 0
-200z"/>
</g>
</svg>
