<svg xmlns="http://www.w3.org/2000/svg" xmlns:xlink="http://www.w3.org/1999/xlink" width="1123" height="562" stroke="#000" stroke-linecap="round" stroke-linejoin="round" fill="#fff" fill-rule="evenodd"><style><![CDATA[.B{fill:#454552}.C{fill:#ffb8b8}.D{fill:#a0616a}.E{fill:#ffb7b7}.F{fill:#3f3d56}.G{fill:#00bfa6}.H{fill:#ebebeb}]]></style><defs><linearGradient id="A" x1="52%" y1="0%" x2="48%" y2="100%"><stop offset="0%" stop-color="#387eb8"/><stop offset="100%" stop-color="#366994"/></linearGradient><linearGradient id="B" x1="50%" y1="0%" x2="50%" y2="100%"><stop offset="0%" stop-color="#ffe052"/><stop offset="100%" stop-color="#ffc331"/></linearGradient><path id="C" d="M195.4487 176.48c0-13.8251 10.6703-24.9551 23.9245-24.9551s23.9244 11.13 23.9244 24.9551-10.6703 24.9551-23.9244 24.9551-23.9245-11.13-23.9245-24.9551z"/><path id="D" d="M679.6643 517.5978l-1.7195 4.7561-4.2912 11.8711-.1029.2969c-10.9329 1.4652-22.9182-1.4074-34.0039-5.8698-4.4353-1.7844-8.7794-3.8063-13.015-6.0577-6.269-3.304-11.8822-6.7913-16.3601-9.7738-6.7421-4.5137-10.9112-7.9027-10.9112-7.9027s-1.1013 1.0381-3.0942 2.8183c-2.6713 2.3841-6.9396 6.1067-12.3463 10.489q-3.0936 2.5249-6.6432 5.2822c-17.444 13.4962-39.8302-22.5166-39.8302-22.5166s6.2961-4.1811 7.9408-4.9928l28.4734-14.2618 14.0052-7.3637c12.055-6.6947 27.0404 5.9734 27.0404 5.9734z"/><path id="E" d="M633.4438 378.687c0-5.6356 4.3496-10.1726 9.7525-10.1726s9.7524 4.537 9.7524 10.1726-4.3496 10.1726-9.7524 10.1726-9.7525-4.537-9.7525-10.1726z"/></defs><g stroke="none"><g fill-rule="nonzero"><path d="M150.9292 448.7151h837.0589V6.7028H150.9292z"/><path d="M994.8931 455.9178H144.024V-.5h850.8691zm-837.0591-14.405h823.2491V13.9049H157.834z" fill="#e5e5e5"/><path d="M541.6041 100.2125v150.0241H332.5259l-38.6258 48.3414 4.4105-48.3414h-18.7942V100.2125h262.0877z" class="G"/><path d="M668.1314 109.1135v96.1895h134.0513l24.7652 30.9933-2.8271-30.9933H836.17v-96.1895H668.1314z" fill="#f0f0f0"/><path d="M114.896 547.1808h12.0943l5.7539-48.658h-17.8494l.0012 48.658z" class="E"/><path d="M111.8115 543.0626l23.8178-.001h.0009c8.3826.0005 15.178 7.0884 15.1786 15.8321v.5147l-38.9967.0014z" class="B"/><path d="M260.198 546.7663l11.7444-3.0149-5.5601-48.6822-17.3326 4.4492 11.1483 47.2479z" class="E"/><path d="M256.2593 543.5362l23.1276-5.9371.001-.0002c8.1399-2.0888 16.3621 3.1002 18.3656 11.5905l.1179.4996-37.8666 9.7208zm-148.8004-7.9572l2.5124-13.4079s4.6246-51.7698 37.814-103.4369l10.8032-56.126s-3.2084-42.4837 27.758-65.4803l9.5468-6.8598 33.4718 2.0012 7.7305 44.1469 15.5765 104.4566s4.0199.393 5.5272 12.4725c3.0638 5.0725 4.8764 10.8571 5.276 16.8378s7.9715 22.9385 10.107 39.8275l-.2512 16.526-16.8327 9.3543-35.0835-103.493-25.0932-57.8587s-12.0775 40.765-30.5765 75.6879l-30.3992 68.826-5.5273 19.0204z" class="B"/><use xlink:href="#C" class="E"/><use xlink:href="#C" class="C"/><path d="M186.4165 297.3943l7.8978-20.5775c-5.5801-18.8526-5.238-39.0719.9762-57.7074h0l1.5109-1.2979c13.1638-11.3077 24.7174-9.249 35.439 4.5832h0c1.7265 2.2487 3.7457 4.2346 5.9992 5.9002 4.7286 3.4606 12.2305 22.2615 2.3253 33.2822l-7.9242 48.2156c.8346 26.6206-17.6848 16.5966-46.2242-12.3984z" class="F"/><path d="M299.6597 269.407c-2.0676-1.6311-4.7216-2.2231-7.2478-1.6167s-4.6653 2.3488-5.8414 4.7585l-19.956-1.6207-3.9019 12.4094 28.2125 1.8758c4.1018 1.833 8.8695.1761 11.098-3.8565s1.2131-9.1663-2.3634-11.9498z" class="E"/><path d="M280.5534 289.5375l-56.8641-11.075-18.4951-32.3442c-2.4746-7.1569 1.0815-15.0513 7.9429-17.6326s14.4296 1.1282 16.9043 8.2851l8.6748 25.0221 44.9716 7.7645z" fill="#ccc"/><g class="B"><path d="M153.7751 147.0729c0-13.2635 10.2369-23.9413 22.9525-23.9413s22.9527 10.6778 22.9527 23.9413-10.2369 23.9413-22.9527 23.9413-22.9525-10.6778-22.9525-23.9413z"/><path d="M156.9298 166.898c6.0281 4.5443 13.7934 5.7606 20.8352 3.2633s12.4869-8.3991 14.6096-15.8345c-1.0793 8.9534-6.8931 16.5133-15.0383 19.5545s-17.2376 1.0476-23.5191-5.1572-8.6851-15.5666-6.2167-24.2155c-1.0473 8.6808 2.53 17.2659 9.3293 22.3894z"/><path d="M247.5109 166.9245c-4.007-7.4826-5.5402-10.6083-10.7067-15.1583-4.5686-4.024-10.1884-5.2059-14.7211-1.3929-11.011-4.9624-23.8393-1.7984-31.5533 7.7827s-8.4852 23.3073-1.8965 33.7623 18.975 15.1602 30.4662 11.573 19.3631-14.6163 19.3623-27.1279a29.772 29.772 0 0 0-.1849-3.2016c3.94-.5772 5.294-5.6601 9.234-6.2373z"/></g><path d="M953.1067 346.0361c.1519-3.343 1.7155-6.4441 4.2701-8.469s5.8379-2.7653 8.9663-2.0223l14.3371-21.0753 14.4036 5.9643-20.6476 29.4658c-1.5796 5.5204-6.8682 8.936-12.3099 7.9503s-9.3166-6.061-9.0196-11.8138z" class="D"/><path d="M968.8343 327.9113l25.4908-44.719-10.3853-28.8877 14.1446-39.3452.5216.2335c.3421.1528 8.3791 3.8938 9.5704 17.2908l16.2546 53.2869-43.3817 58.7037z" class="F"/><path d="M830.3913 163.5103c3.1836.4164 6.0268 2.2823 7.7647 5.0955s2.1918 6.285 1.2398 9.481l19.036 16.5395-6.8145 14.5178-26.568-23.7507c-5.1544-2.0698-8.0103-7.8336-6.6474-13.4165s6.5137-9.2203 11.9894-8.4666z" class="D"/><path d="M846.4994 181.2677l40.7729 29.967 28.4148-8.5669 36.5136 17.7518-.2633.5244c-.1727.3439-4.3698 8.4128-17.2671 8.6158l-52.19 12.7844-52.7567-49.6541z" class="F"/><path d="M921.1067 545.6804h-14.1753l-6.7425-57.0301 20.9201.0013-.0023 57.0288z" class="D"/><path d="M896.8068 541.4552h27.3369 0v17.9536h0-44.5489 0 0c-.0001-4.7616 1.8133-9.3282 5.0412-12.6951s7.6059-5.2585 12.1708-5.2585z" class="B"/><path d="M977.7599 545.6804h-14.1752l-6.7426-57.0301 20.9203.0013-.0025 57.0288z" class="D"/><path d="M953.4603 541.4552h27.3368 0v17.9536h0-44.5489 0 0c0-4.7615 1.8134-9.3281 5.0413-12.6951s7.6058-5.2585 12.1708-5.2585zm29.3405-203.9365l-1.1557 84.4198-1.1568 110.9512-25.4357-2.4122-12.7184-153.1611-16.1867 153.1611h-26.2597l-2.6454-154.3678 9.2502-33.7679 76.3082-4.8231z" class="B"/><path d="M903.957 342.8573l-3.875-.175 17.999-103.4255-7.3697-31.2606c-.7927-3.3664.9538-6.8191 4.065-8.037l13.26-5.1862 4.6844-13.4379 36.9604 4.1542.9089 10.5021c4.0052 1.3398 36.9873 12.7972 34.7115 25.8521-2.246 12.8855-15.508 53.4253-16.1815 55.4799l-2.3225 58.1392-.2857.149c-.3439.1793-25.8195 13.2452-53.4957 13.2431-9.9846.1742-19.8904-1.8703-29.0591-5.9974z" class="F"/><path d="M923.1408 146.927c0-15.3781 11.8689-27.7582 26.6118-27.7582s26.6116 12.3801 26.6116 27.7582-11.8687 27.7581-26.6116 27.7581-26.6118-12.3802-26.6118-27.7581z" class="D"/><path d="M971.3079 173.7975c-5.0714 5.635-14.49 2.6101-15.1509-5.0882-.0518-.5978-.048-1.1992.0112-1.7961.3413-3.41 2.23-6.5059 1.7776-10.1063-.1025-.8961-.4226-1.7501-.9299-2.481-4.0414-5.6449-13.5283 2.5247-17.3424-2.5853-2.3388-3.1335.4105-8.0669-1.3844-11.5691-2.3686-4.6223-9.3846-2.3421-13.7845-4.8734-4.8953-2.8166-4.6025-10.6509-1.38-15.4162 3.9298-5.8115 10.8202-8.9125 17.6247-9.3593s13.5622 1.4717 19.9148 4.054c7.2179 2.9342 14.3754 6.9891 18.8171 13.6092 5.4019 8.0507 5.9217 18.8742 3.2202 28.2881-1.6434 5.7265-7.2519 12.7221-11.3935 17.3236z" class="B"/><path d="M682.9832 538.0116l3.9534-10.6075-37.3422-20.9543-5.8356 15.6556 39.2244 15.9062z" class="C"/><g class="B"><path d="M704.1651 510.3402c-3.3846-1.3744-7.1543-1.289-10.4786.2372s-5.9307 4.3683-7.245 7.9001l-2.6672 7.1506-4.1116 11.0374-1.0053 2.7064 13.1767 5.3466 12.7454-34.2066z"/><use xlink:href="#D"/></g><use xlink:href="#D" fill="#000" opacity=".14"/><path d="M505.181 417.7592h-51.6171c-2.2107-.0025-4.0023-1.8712-4.0048-4.1772v-23.2073c0-17.1747 13.3478-31.0976 29.8134-31.0976s29.8132 13.9229 29.8132 31.0976v23.2073c-.0025 2.3058-1.794 4.1747-4.0047 4.1772z" class="B"/><path d="M554.2684 446.9092c-2.4325.4454-4.5508 1.9919-5.7849 4.2232s-1.4575 4.9183-.6097 7.3379l-14.0359 13.4655 5.7647 10.8929 19.5652-19.3063c3.8877-1.7943 5.8744-6.3382 4.6245-10.5766s-5.3415-6.8316-9.5239-6.0365z" class="C"/><path d="M512.0353 508.1311q-.9511 0-1.9049-.0856c-7.6968-.67-14.5215-5.424-18.0639-12.5831l-22.4866-45.1452c-3.0604-6.1451-.9462-13.7144 4.7998-17.183s13.0912-1.61 16.6747 4.2196l20.7453 48.5529 28.2285-23.9239 16.3446 6.6367-27.6027 31.7862c-4.2905 4.9126-10.364 7.7162-16.7348 7.7254z" class="G"/><path d="M679.8283 552.9309l4.7226-10.2591-35.6879-23.8852-6.9706 15.1419 37.9359 19.0024z" class="C"/><path d="M702.9864 527.0385c-3.2733-1.6416-7.0381-1.8587-10.4651-.6034s-6.2348 3.8802-7.8055 7.2963l-3.1859 6.9157-4.9124 10.6752-1.2016 2.6179 12.7439 6.3866 15.2271-33.0841zm-24.963 5.2727l-2.0647 4.6042-5.153 11.4923-.1244.2877c-11.0086.5848-22.7469-3.2397-33.4711-8.5774-4.2907-2.1346-8.473-4.4987-12.5303-7.0828-6.0072-3.7966-11.3469-7.7234-15.592-11.0559-6.3898-5.0406-10.2967-8.7537-10.2967-8.7537s-1.1745.9467-3.2929 2.5621c-2.8388 2.1629-7.3687 5.5325-13.082 9.4684q-3.2705 2.2698-7.0128 4.7343c-18.3865 12.0585-44.5332 26.7441-66.7732 29.8445-39.0598 5.449-29.8665-48.9207-29.8665-48.9207l31.0858-16.8392 13.198 2.7941 14.6931 3.1005 5.2061 1.1046 2.6877-1.0675 29.4396-11.9378 14.5062-6.2195c12.5125-5.709 26.5206 8.1226 26.5206 8.1226z" class="B"/><path d="M421.8805 561.1329c2.4071-.5761 4.4459-2.2348 5.5679-4.5297s1.2118-4.9902.2453-7.3608l13.3495-14.2046-6.2968-10.5673-18.5822 20.3358c-3.7936 2.0014-5.5524 6.6463-4.0941 10.8117s5.673 6.5346 9.8105 5.5149zm43.9875-164.0466c0-12.027 9.2824-21.7092 20.8126-21.7092s20.8125 9.6822 20.8125 21.7092-9.2824 21.7091-20.8125 21.7091-20.8126-9.6823-20.8126-21.7091z" class="C"/><g class="G"><path d="M459.6041 457.3482l18.1297 53.6142-.1087.1875c-2.5216 4.3481-3.3459 7.8555-2.383 10.1427.5133 1.1769 1.495 2.0602 2.6863 2.4173l42.9033-31.2802-1.5023-12.5369.0838-.1401c4.1468-6.9209 5.4895-13.1888 3.9914-18.6283-1.3571-4.4016-4.2879-8.0886-8.1833-10.2951l-.1495-.1228-21.3987-27.1664-28.6049 5.3009z"/><path d="M432.0335 551.4539l-12.1456-15.5923 29.2789-50.4149 13.6505-44.0126.4235.1428-.4235-.1428c2.0367-6.5655 7.5492-11.2952 14.1182-12.1132s12.9941 2.425 16.4554 8.3058 3.3252 13.3255-.3477 19.0653l-25.0607 39.1634z"/></g><g class="B"><path d="M516.2387 392.6955h-31.5625l-.3238-4.7266-1.6182 4.7266h-4.8599l-.6414-9.3681-3.2074 9.3681h-9.4038v-.4642c.0146-13.5796 10.5647-24.5842 23.5834-24.5996h4.4501c13.0187.0154 23.5689 11.02 23.5835 24.5996z"/><path d="M484.418 422.0913a3.921 3.921 0 0 1-.7088-.0652l-23.1115-4.2534v-39.8421h25.4413l-.6298.766c-8.7636 10.6609-2.1613 27.9475 2.5542 37.3029.7093 1.3982.5874 3.0968-.3136 4.3694-.7499 1.0817-1.952 1.7223-3.2318 1.7224z"/></g><path d="M829.7127 350.7125v56.1285H591.3295l-34.4226 43.0797 3.9315-43.0797h-16.7486v-56.1285h285.6229z" fill="#f0f0f0"/><use xlink:href="#E"/><use xlink:href="#E" x="-32.9145"/><use xlink:href="#E" x="-65.8291"/><path d="M1111.2809 560.522H.7191c-.6733 0-1.2191-.5692-1.2191-1.2715s.5458-1.2716 1.2191-1.2716h1110.5618c.6732 0 1.2191.5694 1.2191 1.2716s-.5459 1.2715-1.2191 1.2715z" fill="#cacaca"/></g><path d="M34.7478 0C16.9774 0 18.087 7.7466 18.087 7.7466l.0197 8.0257h16.958v2.4095H11.3713S0 16.8854 0 34.9093s9.9251 17.3852 9.9251 17.3852h5.9233v-8.3641s-.3193-9.977 9.7667-9.977h16.8193s9.4495.1535 9.4495-9.1803V9.34S53.3191 0 34.7478 0zm-9.3506 5.3971c.8093-.0007 1.5857.3222 2.158.8974s.8935 1.3557.8927 2.1693-.3204 1.594-.8927 2.1693-1.3487.8981-2.158.8974-1.5857-.3222-2.158-.8974a3.072 3.072 0 0 1 0-4.3386c.5723-.5752 1.3487-.8981 2.158-.8974z" fill="url(#A)" transform="translate(289.5 119.5)"/><path d="M324.7525 189.5c17.7703 0 16.6607-7.7467 16.6607-7.7467l-.0196-8.0254h-16.9582v-2.4094h23.6933S359.5 172.6148 359.5 154.5903s-9.9251-17.3849-9.9251-17.3849h-5.9233v8.3638s.3193 9.977-9.7668 9.977h-16.8191s-9.4496-.1535-9.4496 9.1808v15.4332s-1.4349 9.3398 17.1361 9.3398zm9.3506-5.3967c-.8093.0008-1.5857-.3221-2.158-.8974s-.8934-1.3556-.8927-2.1692.3204-1.5942.8926-2.1695 1.3488-.8982 2.1581-.8975 1.5856.3221 2.158.8974.8934 1.3558.8926 2.1693-.3204 1.594-.8926 2.1692-1.3488.8982-2.158.8974z" fill="url(#B)"/><path d="M439.5 144.5h-60l5 57.5 25 7.5 25-7.5 5-57.5" fill="#e44d26"/><path d="M386.5 129.5v11h3v-4h4v4h3v-11h-3v4h-4v-4zm24 0v11h3v-6l2.5 4 2.5-4v6h3v-11h-3L416 133l-2.5-3.5zm13 0v11h9v-3h-6v-8z" fill="#000"/><path d="M401.8661 194.7098l-8.2143-2.4643-.6697-7.7009-.2212-2.5446h8l.4355 5.0089L409.5 189.5v7.5zM409.5 162h-10.4783l.6522 7.5H409.5v7.5h-9.1739-8l-.6522-7.5-.6522-7.5-.6521-7.5h8H409.5z" class="H"/><path d="M431.2391 182l.4348-5 .6522-7.5.6522-7.5.6521-7.5.4348-5H409.5v55l15.1786-4.5536 5.1339-1.5401.6696-7.7009.6697-7.7009z" fill="#f16529"/><path d="M398.5 129.5v3h3.5v8h3v-8h3.5v-3z" fill="#000"/><path d="M409.5 162h10.4783 8l.6521-7.5h-8H409.5zm9.1739 15H409.5v-7.5h9.8261 8l-.6522 7.5-.4348 5-.2212 2.5446-.6697 7.7009-8.2143 2.4643L409.5 197v-7.5l8.3036-2.4911.4355-5.0089z"/><path fill="#f7df1e" d="M709.5 119.5h70v60h-70z"/><path d="M741 166.75v-19.5h6.125v19.5c0 7.5-12.25 12-19.25 3l5.25-3c2.625 4.5 7.875 3 7.875 0zm26.25-12.7499c-3.5-4.125-7.875-2.25-7.875.375 0 4.125 14.4375 3.375 14.4375 12.375-.4375 10.5-17.5 10.125-22.75 2.25l5.25-2.625c3.9375 5.25 10.9375 3.375 10.9375.375-.4375-5.25-14-2.625-14-12.375-.4375-7.5 12.6875-11.625 18.8125-3l-4.8125 2.625" fill="#323232"/><path d="M519.5 164.5h-60l5 57.5 25 7.5 25-7.5 5-57.5" fill="#1572b6"/><path d="M511.2391 202l.4348-5 .6522-7.5.6522-7.5.6521-7.5.4348-5H489.5v55l15.1786-4.5536 5.1339-1.5401.6696-7.7009.6697-7.7009z" fill="#33a9dc"/><path d="M481.5 149.5h-9v11h9v-3h-6v-5h6zm13 0v3h-5l5 5v3h-10v-3h5l-5-5v-3zm13 0v3h-5l5 5v3h-10v-3h5l-5-5v-3z" fill="#000"/><path d="M484.4331 215.4799l-2.5669-.7701-8.2143-2.4643-.6697-7.7009L472.761 202h8l.4355 5.0089 2.567.7701 5.7366 1.721v7.5zM471.0217 182h8 2.5H489.5v-7.5h-8.6304-2.5-8z" class="H"/><path d="M489.5 209.5l8.3036-2.4911.4355-5.0089.4348-5H489.5v-7.5h9.8261l.6522-7.5H489.5v-7.5h11.1304 8l-.6521 7.5-.6522 7.5-.6522 7.5-.4348 5-.2212 2.5446-.6697 7.7009-8.2143 2.4643L489.5 217v-7.5z"/><path d="M489.5001 197h-6.6739l-.6522-7.5h7.3261z" class="H"/></g></svg>